<?xml version="1.0" standalone="no"?>
<!DOCTYPE svg PUBLIC "-//W3C//DTD SVG 20010904//EN"
 "http://www.w3.org/TR/2001/REC-SVG-20010904/DTD/svg10.dtd">
<svg version="1.0" xmlns="http://www.w3.org/2000/svg"
 width="1080.000000pt" height="1080.000000pt" viewBox="0 0 1080.000000 1080.000000"
 preserveAspectRatio="xMidYMid meet">

<g transform="translate(0.000000,1080.000000) scale(0.100000,-0.100000)"
fill="#000000" stroke="none">
<path d="M6188 8893 c-67 -202 -72 -224 -73 -303 0 -68 4 -93 22 -125 22 -42
79 -100 124 -128 90 -55 247 -74 325 -38 54 25 109 74 139 125 24 42 170 474
162 482 -2 2 -35 15 -73 28 l-70 24 -72 -217 c-40 -119 -81 -231 -92 -249 -44
-72 -136 -93 -220 -49 -110 56 -112 123 -16 407 36 107 66 199 66 205 0 9
-120 55 -143 55 -3 0 -39 -98 -79 -217z"/>
<path d="M5061 9017 c-19 -6 -54 -30 -78 -52 -24 -23 -45 -39 -48 -37 -3 3 -5
21 -5 39 0 28 -3 33 -17 29 -10 -3 -44 -8 -76 -12 l-58 -6 5 -37 c3 -20 20
-144 37 -276 17 -132 33 -241 34 -243 3 -4 146 15 150 20 1 2 -7 75 -18 163
-19 148 -19 163 -4 197 18 43 63 74 119 83 l39 7 -6 41 c-16 107 -13 104 -74
84z"/>
<path d="M4327 8875 c-21 -8 -58 -29 -82 -46 -211 -152 -122 -484 137 -515
101 -12 250 44 309 115 16 20 29 40 29 46 0 5 -22 23 -50 38 l-49 28 -15 -24
c-42 -63 -179 -96 -245 -59 -19 10 -41 28 -49 40 -13 20 -10 22 115 61 70 22
163 50 205 63 87 26 91 33 59 104 -48 106 -139 164 -256 163 -38 0 -87 -7
-108 -14z m158 -115 c36 -17 77 -64 64 -73 -2 -2 -60 -20 -128 -41 -69 -21
-130 -40 -138 -43 -32 -12 -4 107 33 138 18 15 83 38 108 39 11 0 38 -9 61
-20z"/>
<path d="M7102 8773 c-5 -10 -82 -154 -171 -320 -88 -166 -161 -304 -161 -307
0 -10 135 -75 141 -68 9 9 339 628 339 635 0 5 -126 77 -135 77 -2 0 -8 -8
-13 -17z"/>
<path d="M3777 8639 c-88 -21 -165 -81 -188 -144 -15 -42 -25 -44 -41 -10 -6
14 -14 24 -17 23 -50 -24 -111 -60 -115 -66 -4 -7 342 -653 359 -670 4 -4 94
42 117 60 16 12 13 21 -42 122 -33 60 -60 112 -60 116 0 4 23 5 50 2 93 -9
204 58 252 152 84 165 -45 399 -232 420 -25 2 -62 1 -83 -5z m128 -182 c123
-122 44 -301 -120 -274 -50 8 -81 35 -111 95 -58 115 7 222 135 222 50 0 57
-3 96 -43z"/>
<path d="M5563 8635 c-61 -26 -74 -106 -24 -156 62 -62 161 -14 161 79 0 32
-30 69 -67 83 -30 11 -31 11 -70 -6z"/>
<path d="M7308 8291 c-229 -168 -420 -309 -423 -313 -4 -3 18 -23 48 -43 l55
-37 419 307 c230 168 419 309 420 313 2 4 -21 23 -50 43 l-52 36 -417 -306z"/>
<path d="M7669 8143 c-203 -206 -224 -238 -224 -348 0 -90 28 -149 110 -231
77 -78 131 -106 217 -112 59 -4 74 -1 134 27 57 27 94 58 241 203 l173 172
-57 58 -57 58 -176 -174 c-185 -184 -216 -204 -287 -193 -42 7 -98 48 -124 91
-26 43 -25 121 2 166 12 19 93 107 180 195 l159 161 -53 52 c-29 29 -55 52
-58 52 -3 0 -84 -80 -180 -177z"/>
<path d="M3154 8226 c-53 -17 -122 -64 -164 -112 -130 -149 -82 -375 99 -457
234 -107 522 178 411 408 -29 59 -85 117 -142 146 -52 27 -148 34 -204 15z
m123 -146 c89 -40 130 -158 81 -230 -37 -53 -72 -74 -126 -74 -97 0 -179 88
-170 183 6 58 30 94 83 121 50 25 78 25 132 0z"/>
<path d="M2487 7905 l-48 -54 292 -251 c161 -137 296 -250 300 -250 9 0 103
109 98 114 -2 1 -134 114 -292 249 -159 136 -292 247 -296 247 -4 0 -28 -25
-54 -55z"/>
<path d="M8360 7492 c-45 -108 -83 -198 -85 -200 -2 -2 -103 4 -224 14 -122 9
-224 14 -227 12 -5 -6 74 -138 89 -149 5 -3 74 -9 154 -12 80 -3 148 -8 151
-11 3 -4 -22 -70 -56 -148 l-62 -141 49 -79 48 -78 88 212 c49 117 90 214 91
216 1 2 98 -4 215 -12 117 -9 214 -15 215 -13 2 2 -15 35 -39 73 l-42 69 -75
6 c-41 4 -108 7 -147 8 -40 0 -73 5 -73 10 0 4 25 68 56 141 l55 132 -42 69
c-23 38 -45 71 -49 74 -4 2 -44 -84 -90 -193z"/>
<path d="M2463 7464 c-192 -95 -234 -351 -82 -488 92 -83 209 -99 317 -45 108
54 194 186 196 299 0 32 -2 61 -5 64 -3 3 -31 1 -62 -5 l-57 -12 0 -41 c-1
-101 -88 -196 -178 -196 -58 0 -55 10 63 195 127 200 125 192 40 231 -71 34
-163 33 -232 -2z m146 -113 c11 -7 -2 -34 -64 -130 -42 -67 -82 -120 -88 -118
-18 6 -47 70 -47 105 0 46 35 109 73 132 33 21 101 26 126 11z"/>
<path d="M2130 6975 c-39 -90 -45 -77 119 -238 83 -82 151 -150 151 -153 0 -2
-96 -4 -214 -4 l-213 0 -27 -72 c-14 -39 -24 -73 -23 -75 2 -2 139 0 304 3
l300 7 27 73 c16 40 27 77 25 82 -2 6 -100 103 -216 217 l-213 207 -20 -47z"/>
<path d="M8665 6507 c-192 -44 -352 -81 -355 -84 -11 -10 82 -382 110 -440 72
-147 227 -231 375 -204 183 34 299 158 312 332 4 63 -1 102 -37 264 -23 105
-45 195 -49 201 -4 7 -122 -16 -356 -69z m271 -134 c3 -16 12 -53 20 -84 28
-115 13 -221 -39 -277 -61 -66 -206 -93 -284 -54 -54 28 -97 80 -117 139 -19
58 -49 193 -44 198 3 3 427 102 445 104 7 0 15 -11 19 -26z"/>
<path d="M2019 6297 c-198 -74 -255 -355 -101 -499 117 -109 297 -105 402 8
94 102 122 273 64 385 -8 16 -17 29 -21 29 -3 0 -26 -12 -51 -26 -37 -22 -43
-29 -36 -47 5 -12 8 -56 9 -98 0 -64 -4 -81 -25 -111 -39 -58 -120 -93 -120
-52 0 9 16 103 36 211 19 107 33 198 29 201 -13 13 -150 12 -186 -1z m81 -134
c0 -33 -54 -283 -61 -283 -23 0 -81 67 -88 103 -17 71 16 148 72 172 35 15 77
19 77 8z"/>
<path d="M8612 5664 c-97 -48 -152 -138 -160 -260 -6 -89 11 -159 50 -219 l31
-46 43 42 43 43 -22 35 c-32 51 -31 161 1 212 18 31 72 69 96 69 3 0 6 -100 6
-221 l0 -222 66 6 c43 4 82 16 117 34 201 109 191 429 -18 528 -76 36 -180 35
-253 -1z m249 -154 c37 -27 52 -70 47 -136 -4 -44 -11 -61 -34 -84 -16 -16
-44 -32 -61 -36 l-33 -6 0 147 0 147 27 -7 c15 -3 39 -15 54 -25z"/>
<path d="M1882 5635 c-106 -30 -177 -86 -222 -178 -47 -96 -53 -147 -43 -364
5 -105 11 -194 14 -198 4 -3 149 1 324 10 174 8 338 15 362 15 l46 0 -7 178
c-8 203 -24 291 -63 363 -36 66 -120 143 -180 163 -69 24 -168 29 -231 11z
m203 -174 c93 -43 126 -110 133 -267 l4 -111 -103 -7 c-57 -3 -163 -9 -235
-12 l-131 -6 -6 98 c-8 139 7 203 64 263 56 60 191 80 274 42z"/>
<path d="M8469 5043 c-74 -118 -98 -306 -49 -391 33 -58 74 -82 140 -82 47 0
56 4 90 38 26 26 48 66 75 135 41 107 57 130 88 125 32 -4 49 -45 41 -98 -8
-57 -40 -145 -60 -161 -13 -10 -8 -17 32 -46 26 -18 51 -33 54 -33 12 0 57 92
74 149 20 70 21 181 0 229 -21 52 -62 91 -108 103 -98 26 -162 -29 -217 -190
-26 -74 -45 -101 -72 -101 -35 0 -47 19 -47 72 0 58 23 130 60 185 l29 42 -50
36 -49 35 -31 -47z"/>
<path d="M2350 4491 l-23 -50 32 -27 c55 -46 89 -134 77 -199 -6 -32 -49 -95
-65 -95 -3 0 -40 90 -81 200 -44 116 -80 200 -88 200 -30 0 -112 -52 -151 -96
-41 -47 -71 -120 -71 -175 0 -47 39 -152 74 -200 50 -67 136 -109 225 -109
187 1 317 160 281 343 -6 34 -25 87 -40 118 -28 54 -110 139 -135 139 -6 0
-22 -22 -35 -49z m-117 -260 c26 -70 47 -133 47 -140 0 -6 -14 -11 -30 -11
-100 0 -171 100 -140 196 11 33 53 84 69 84 3 0 27 -58 54 -129z"/>
<path d="M8311 4472 c-12 -38 -21 -72 -21 -75 0 -11 524 -177 531 -169 4 4 16
37 27 73 l19 66 -252 81 c-139 45 -259 84 -268 88 -12 4 -20 -9 -36 -64z"/>
<path d="M8084 4321 c-52 -39 -106 -111 -146 -197 -43 -92 -51 -190 -19 -253
40 -77 87 -111 338 -238 l239 -122 32 65 c18 37 32 67 30 69 -2 1 -16 9 -33
18 l-29 15 39 16 c57 24 93 62 126 131 35 73 39 159 10 227 -42 98 -177 178
-278 164 -145 -20 -275 -185 -246 -313 6 -24 7 -43 3 -43 -15 0 -74 46 -94 73
-49 66 -9 187 92 277 l54 48 -31 46 c-18 25 -35 46 -40 46 -4 0 -25 -13 -47
-29z m393 -278 c53 -25 75 -66 70 -135 -8 -134 -140 -202 -242 -124 -59 46
-70 130 -25 204 41 67 124 90 197 55z"/>
<path d="M8962 4307 c-32 -34 -42 -77 -27 -115 38 -88 151 -60 162 40 5 40 2
50 -20 72 -34 34 -85 35 -115 3z"/>
<path d="M2630 3811 c-122 -71 -167 -91 -209 -91 -36 0 -86 33 -113 74 l-23
35 -57 -32 c-32 -17 -58 -37 -58 -43 0 -20 96 -100 132 -111 l33 -9 -32 -20
-32 -20 35 -62 c19 -34 37 -62 39 -62 7 0 460 263 472 274 9 8 3 26 -25 73
-20 35 -39 62 -42 62 -3 0 -57 -30 -120 -68z"/>
<path d="M7914 3652 c-72 -90 -80 -67 62 -183 69 -56 132 -115 140 -130 45
-88 -17 -199 -112 -199 -47 0 -62 10 -227 147 -49 40 -92 73 -97 73 -8 0 -90
-103 -90 -113 0 -11 272 -227 309 -246 20 -10 51 -22 70 -26 111 -24 261 113
261 240 0 47 9 56 30 30 24 -28 36 -19 112 81 5 7 -65 71 -200 181 -114 93
-212 172 -218 175 -5 4 -23 -10 -40 -30z"/>
<path d="M2721 3528 c-123 -103 -147 -128 -168 -175 -41 -89 -20 -174 69 -277
45 -52 149 -126 178 -126 11 0 25 18 38 50 l21 50 -33 14 c-42 18 -113 80
-132 117 -21 42 -18 94 9 125 l23 27 66 -80 c91 -108 135 -138 207 -138 61 0
98 21 133 73 22 33 24 109 4 156 -32 76 -130 155 -196 156 l-25 1 28 23 28 22
-41 52 c-23 29 -47 52 -53 51 -7 0 -77 -54 -156 -121z m229 -113 c33 -17 70
-73 70 -106 0 -31 -38 -69 -69 -69 -19 0 -43 18 -88 66 -35 36 -63 71 -63 78
0 40 95 59 150 31z"/>
<path d="M3097 2967 c-136 -89 -247 -164 -247 -167 0 -3 23 -23 51 -44 l51
-38 169 113 c93 62 171 110 174 107 3 -2 -22 -92 -56 -198 -33 -106 -56 -196
-52 -199 5 -3 30 -21 55 -38 l46 -33 166 110 c92 61 171 110 175 110 5 0 -18
-83 -50 -185 -33 -102 -59 -191 -59 -198 0 -18 100 -91 110 -80 7 7 147 460
165 534 6 22 -1 31 -49 67 -30 23 -59 42 -63 42 -5 0 -78 -45 -163 -99 -85
-55 -156 -96 -158 -91 -2 5 20 83 47 174 28 91 51 170 51 175 0 5 -26 30 -58
54 l-58 45 -247 -161z"/>
<path d="M7372 3065 c-90 -46 -165 -125 -187 -197 -17 -57 -11 -67 35 -68 14
0 34 -3 46 -6 17 -5 24 2 38 40 41 108 183 167 260 110 18 -13 19 -15 3 -26
-107 -81 -316 -256 -316 -264 -1 -7 17 -30 39 -52 113 -118 272 -120 399 -6
130 117 140 286 25 414 -54 60 -122 90 -205 90 -56 0 -77 -6 -137 -35z m278
-224 c16 -31 12 -93 -10 -129 -27 -44 -76 -72 -128 -72 -41 0 -103 23 -101 38
0 8 211 181 221 181 4 1 12 -8 18 -18z"/>
<path d="M6970 2784 c-30 -18 -59 -35 -65 -37 -5 -2 24 -62 64 -133 59 -102
75 -140 79 -180 5 -64 -15 -106 -67 -136 l-39 -22 31 -58 c18 -32 36 -58 41
-58 35 0 116 101 116 145 0 25 17 17 30 -15 7 -16 15 -30 17 -30 13 0 123 66
123 73 0 9 -257 468 -268 478 -4 4 -32 -9 -62 -27z"/>
<path d="M3930 2636 c0 -53 1 -55 33 -61 40 -9 77 -42 77 -69 0 -31 -102 -256
-116 -256 -7 0 -36 11 -65 25 -30 13 -57 21 -60 17 -4 -4 -16 -28 -27 -53
l-19 -46 63 -27 c35 -16 64 -30 64 -31 0 -2 -12 -31 -26 -65 -15 -33 -25 -62
-23 -63 17 -10 121 -57 127 -57 5 0 21 27 37 60 16 33 31 60 34 60 3 -1 17 -7
31 -15 31 -18 46 -19 53 -2 3 6 12 29 21 50 l16 37 -35 17 c-19 9 -35 22 -35
28 0 7 24 66 54 131 30 66 57 135 61 155 19 100 -106 219 -232 219 l-33 0 0
-54z"/>
<path d="M6343 2505 c-38 -16 -53 -42 -53 -90 0 -45 45 -95 85 -95 34 0 82 25
95 49 26 49 -1 122 -51 140 -39 13 -37 13 -76 -4z"/>
<path d="M4416 2388 c-19 -62 -47 -153 -62 -203 -15 -49 -28 -92 -30 -94 -2
-2 -31 6 -65 18 -35 12 -66 18 -70 14 -3 -5 -13 -29 -22 -55 l-16 -47 70 -23
c66 -21 70 -24 64 -48 -9 -37 -45 -70 -74 -70 -14 0 -40 9 -58 20 l-32 19 -31
-42 c-16 -23 -29 -46 -27 -52 6 -17 80 -54 134 -66 97 -22 180 24 222 122 17
39 26 49 39 44 59 -23 66 -19 83 38 l16 55 -42 13 -42 14 63 205 c35 112 62
205 61 206 -5 4 -132 44 -138 44 -5 0 -24 -51 -43 -112z"/>
<path d="M4823 2374 c-62 -23 -136 -94 -163 -156 -63 -147 0 -307 149 -377 47
-21 70 -26 146 -26 79 0 96 3 141 27 99 52 146 127 152 243 4 68 1 88 -18 127
-51 108 -151 170 -285 175 -54 2 -94 -2 -122 -13z m227 -149 c36 -34 54 -94
45 -144 -18 -95 -67 -141 -152 -141 -96 0 -158 70 -149 166 10 110 61 157 163
152 53 -3 67 -8 93 -33z"/>
<path d="M5509 2357 c-111 -32 -187 -105 -196 -191 -11 -95 20 -157 100 -195
23 -11 99 -31 169 -45 147 -29 165 -37 174 -73 10 -40 -7 -76 -46 -95 -48 -24
-177 -24 -247 1 l-52 18 -17 -51 c-9 -28 -19 -56 -21 -62 -9 -26 97 -49 223
-49 119 0 122 1 190 35 85 43 124 95 132 169 9 93 -37 168 -123 201 -17 6 -84
22 -150 36 -142 29 -170 45 -170 99 0 30 6 42 28 59 25 18 42 21 135 21 78 -1
119 -6 152 -19 68 -26 70 -26 93 33 20 53 20 54 2 68 -60 43 -280 67 -376 40z"/>
</g>
</svg>
